<svg width="47" height="47" viewBox="0 0 47 47" fill="none" xmlns="http://www.w3.org/2000/svg">
<path d="M3.9165 19.5833L21.0531 5.87401C22.4835 4.72966 24.5162 4.72966 25.9466 5.87401L43.0832 19.5833" stroke="black" stroke-width="3.5" stroke-linecap="round" stroke-linejoin="round"/>
<path d="M18.5605 7.93013L10.7272 14.2947C9.30495 15.4503 8.59382 16.0281 8.21365 16.8268C7.8335 17.6255 7.8335 18.5418 7.8335 20.3743V27.4167C7.8335 34.8019 7.8335 38.4948 10.1278 40.7889C12.4222 43.0833 16.1148 43.0833 23.5002 43.0833C30.8854 43.0833 34.5783 43.0833 36.8724 40.7889C39.1668 38.4948 39.1668 34.8019 39.1668 27.4167V20.3743C39.1668 18.5418 39.1668 17.6255 38.7867 16.8268C38.4064 16.0281 37.6953 15.4503 36.2732 14.2947L28.4399 7.93013C26.0738 6.00772 24.8908 5.04651 23.5002 5.04651C22.1096 5.04651 20.9265 6.00772 18.5605 7.93013Z" stroke="black" stroke-width="3.5"/>
<path d="M19.0938 31.8229H27.9063" stroke="black" stroke-width="3.5" stroke-linecap="round"/>
</svg>
